<svg width="20" height="21" viewBox="0 0 20 21" fill="none" xmlns="http://www.w3.org/2000/svg">
<g clip-path="url(#clip0_1_4)">
<path d="M10 19C8.14348 19 6.36301 18.2625 5.05025 16.9497C3.7375 15.637 3 13.8565 3 12C3 10.1435 3.7375 8.36301 5.05025 7.05025C6.36301 5.7375 8.14348 5 10 5C11.8565 5 13.637 5.7375 14.9497 7.05025C16.2625 8.36301 17 10.1435 17 12C17 13.8565 16.2625 15.637 14.9497 16.9497C13.637 18.2625 11.8565 19 10 19ZM10 3C7.61305 3 5.32387 3.94821 3.63604 5.63604C1.94821 7.32387 1 9.61305 1 12C1 14.3869 1.94821 16.6761 3.63604 18.364C5.32387 20.0518 7.61305 21 10 21C12.3869 21 14.6761 20.0518 16.364 18.364C18.0518 16.6761 19 14.3869 19 12C19 9.61305 18.0518 7.32387 16.364 5.63604C14.6761 3.94821 12.3869 3 10 3ZM10.5 7H9V13L13.75 15.85L14.5 14.62L10.5 12.25V7ZM5.88 2.39L4.6 0.860001L0 4.71L1.29 6.24L5.88 2.39ZM20 4.72L15.4 0.860001L14.11 2.39L18.71 6.25L20 4.72Z" fill="white"/>
</g>
<defs>
<clipPath id="clip0_1_4">
<rect width="20" height="21" fill="white"/>
</clipPath>
</defs>
</svg>
