<svg width="30" height="30" viewBox="0 0 30 30" fill="none" xmlns="http://www.w3.org/2000/svg">
<rect width="30" height="30" rx="5" fill="#D9D9D9"/>
<g clip-path="url(#clip0_3_7)">
<path d="M15.186 17.552C14.569 17.552 14.209 18.139 14.209 18.925C14.209 19.716 14.58 20.275 15.192 20.275C15.809 20.275 16.163 19.687 16.163 18.901C16.163 18.175 15.815 17.552 15.186 17.552Z" fill="white"/>
<path d="M17 5H9C8.46957 5 7.96086 5.21071 7.58579 5.58579C7.21071 5.96086 7 6.46957 7 7V23C7 23.5304 7.21071 24.0391 7.58579 24.4142C7.96086 24.7893 8.46957 25 9 25H21C21.5304 25 22.0391 24.7893 22.4142 24.4142C22.7893 24.0391 23 23.5304 23 23V11L17 5ZM12.155 20.454C11.729 20.808 11.082 20.975 10.291 20.975C9.816 20.975 9.481 20.945 9.253 20.915V16.944C9.66197 16.8851 10.0748 16.8574 10.488 16.861C11.256 16.861 11.754 16.999 12.143 17.293C12.563 17.605 12.827 18.103 12.827 18.815C12.827 19.59 12.545 20.124 12.155 20.454ZM15.145 21C13.945 21 13.244 20.094 13.244 18.942C13.244 17.731 14.017 16.826 15.211 16.826C16.452 16.826 17.13 17.755 17.13 18.871C17.129 20.196 16.325 21 15.145 21ZM19.8 20.238C20.075 20.238 20.381 20.177 20.562 20.106L20.7 20.819C20.532 20.903 20.154 20.993 19.663 20.993C18.266 20.993 17.546 20.124 17.546 18.972C17.546 17.593 18.529 16.826 19.753 16.826C20.227 16.826 20.586 16.922 20.748 17.006L20.562 17.732C20.3185 17.6314 20.0574 17.5804 19.794 17.582C19.068 17.582 18.504 18.02 18.504 18.92C18.504 19.729 18.984 20.238 19.8 20.238ZM17 12H16V7L21 12H17Z" fill="white"/>
<path d="M10.584 17.563C10.381 17.563 10.249 17.581 10.171 17.599V20.244C10.249 20.262 10.375 20.262 10.488 20.262C11.316 20.268 11.855 19.813 11.855 18.847C11.861 18.007 11.37 17.563 10.584 17.563Z" fill="white"/>
</g>
<defs>
<clipPath id="clip0_3_7">
<rect width="16" height="20" fill="white" transform="translate(7 5)"/>
</clipPath>
</defs>
</svg>
